<svg width="54" height="60" viewBox="0 0 54 60" fill="none" xmlns="http://www.w3.org/2000/svg">
<path d="M0.365054 0.0105726C0.365054 0.243169 0.354473 0.401758 0.365054 0.560346C0.767151 4.95854 1.16925 9.35673 1.56076 13.7655C2.111 20.0033 2.65066 26.2411 3.2009 32.4684C3.8252 39.4674 4.46009 46.4559 5.06324 53.4549C5.10557 53.9624 5.28545 54.1844 5.76162 54.3113C12.5338 56.1721 19.2848 58.0434 26.0569 59.8936C26.5119 60.0205 27.0622 60.0416 27.5172 59.9148C34.3105 58.054 41.0932 56.1615 47.8866 54.2902C48.4051 54.1421 48.5849 53.9095 48.6273 53.3809C48.8389 50.7378 49.0929 48.0841 49.3256 45.4409C49.7172 41.0639 50.0981 36.6868 50.4896 32.3098C50.9446 27.1715 51.4102 22.0438 51.8652 16.9055C52.2038 13.0783 52.5636 9.26157 52.9022 5.4343C53.0609 3.63696 53.1985 1.83963 53.3466 0H0.365054V0.0105726ZM43.1249 15.2774C42.7757 19.1469 42.4265 23.0271 42.0773 26.8966C41.6752 31.3477 41.2731 35.7987 40.871 40.2392C40.7546 41.5185 40.5853 42.7978 40.5536 44.0876C40.5324 44.7748 40.2361 44.9546 39.6647 45.1132C35.5803 46.2127 31.5064 47.344 27.4325 48.4647C27.2526 48.5175 27.0833 48.581 26.9035 48.6338C26.84 48.6021 26.7765 48.581 26.7024 48.5492C22.3428 47.3651 17.9832 46.1704 13.6237 44.9651C13.4438 44.9123 13.211 44.6268 13.1898 44.4259C12.883 41.1273 12.6078 37.8287 12.3116 34.4666H18.9673C19.0837 35.7882 19.2107 37.1309 19.3165 38.4842C19.4118 39.7317 19.4012 39.7317 20.5757 40.0489C22.6814 40.6092 24.7977 41.159 26.9035 41.7088L26.8823 41.6559C29.1891 41.0427 31.4958 40.4401 33.8026 39.7846C34.0142 39.7212 34.2576 39.3828 34.2893 39.1502C34.4269 38.1353 34.501 37.1097 34.5856 36.0948C34.7232 34.456 34.8607 32.8173 35.0089 31.1045H26.8823L26.9035 31.0622C26.8505 31.0622 26.7871 31.0622 26.7341 31.0622H12.0047C11.8037 28.8737 11.6132 26.7063 11.4121 24.4755H26.7447C26.7976 24.4755 26.8611 24.4755 26.914 24.4755L26.8929 24.4332H35.6014C35.8025 22.1601 36.0035 19.9399 36.2046 17.6773H26.8823L26.9035 17.635C26.8505 17.635 26.7871 17.635 26.7341 17.635C21.5175 17.6456 16.3008 17.6456 11.0841 17.6562C11.01 17.6562 10.936 17.6245 10.7984 17.5822C10.6079 15.4254 10.4069 13.2686 10.2164 11.0483H26.7341C26.7871 11.0483 26.8505 11.0483 26.9035 11.0483L26.8823 11.006H43.4741C43.3577 12.4862 43.2413 13.8818 43.1249 15.2774Z" fill="black"/>
</svg>
