<svg width="61" height="60" viewBox="0 0 61 60" fill="none" xmlns="http://www.w3.org/2000/svg">
<path d="M0.853516 0C20.867 0 40.84 0 60.8535 0C60.8535 20.0135 60.8535 40.027 60.8535 60C40.8805 60 20.867 60 0.853516 60C0.853516 39.946 0.853516 19.973 0.853516 0ZM54.5335 31.7623C53.3181 29.5746 51.657 28.0756 49.2667 27.549C47.5652 27.1438 45.8636 27.1438 44.1621 27.5084C38.6523 28.6428 36.3025 35.287 39.8677 39.7029C41.1236 41.2424 42.7846 42.1742 44.5267 42.9845C46.0662 43.7137 47.6462 44.4024 49.1857 45.1722C50.2391 45.6988 50.6847 46.6712 50.5632 47.846C50.4416 49.0209 49.6314 49.6691 48.6185 50.0338C46.3498 50.844 43.7164 50.1148 42.1769 48.2107C41.8528 47.8055 41.5287 47.3599 41.2046 46.9142C39.6651 47.8055 38.1661 48.6563 36.6671 49.5476C37.5989 51.3707 38.8954 52.8292 40.678 53.8015C43.7164 55.4625 46.917 55.7056 50.1985 54.8953C52.3457 54.3687 54.1688 53.2748 55.3032 51.2897C57.4099 47.5219 56.1945 42.8224 52.4673 40.5132C50.8062 39.5003 48.9426 38.8116 47.2006 37.9203C46.3498 37.4747 45.4585 37.0695 44.7293 36.5024C43.4328 35.449 43.6759 33.3423 45.1344 32.5321C46.5524 31.7218 48.5375 32.208 49.6314 33.6259C49.8744 33.9095 50.0365 34.2336 50.2796 34.5577C51.657 33.6259 53.075 32.6941 54.5335 31.7623ZM16.6536 50.1553C17.4639 51.8974 18.6388 53.2748 20.2998 54.1661C22.447 55.341 24.7968 55.5435 27.1871 55.1789C29.3343 54.8548 31.1168 53.8825 32.2917 51.9379C33.264 50.3173 33.5476 48.5348 33.5476 46.6306C33.5476 40.4726 33.5476 34.3147 33.5476 28.1566C33.5476 27.9946 33.5476 27.792 33.5476 27.5895C31.6435 27.5895 29.8204 27.5895 27.9163 27.5895C27.9163 27.8325 27.9163 28.0351 27.9163 28.2782C27.9163 34.3552 27.9163 40.3916 27.9163 46.4686C27.9163 47.0358 27.8758 47.6435 27.7948 48.2107C27.6327 49.1425 27.1466 49.8312 26.2148 50.1148C24.4727 50.6415 23.0547 50.1148 22.0419 48.6158C21.7988 48.2107 21.5557 47.8055 21.2722 47.4004C19.6921 48.3322 18.1931 49.2235 16.6536 50.1553Z" fill="black"/>
</svg>
