<svg width="61" height="60" viewBox="0 0 61 60" fill="none" xmlns="http://www.w3.org/2000/svg">
<path d="M8.4 9.80078V50.3008C3.5 44.9008 0.5 37.8008 0.5 30.0008C0.5 22.2008 3.5 15.1008 8.4 9.80078Z" fill="black"/>
<path d="M11.5996 14.1992L28.8996 48.8992H11.5996V14.1992Z" fill="black"/>
<path d="M30.5 44.9996L13.5 11.0996H47.5L30.5 44.9996Z" fill="black"/>
<path d="M30.4998 0C38.2998 0 45.3998 3 50.6998 7.9H10.2998C15.5998 3 22.6998 0 30.4998 0Z" fill="black"/>
<path d="M49.3996 48.8992H32.0996L49.3996 14.1992V48.8992Z" fill="black"/>
<path d="M50.6998 52.0996C45.3998 56.9996 38.2998 59.9996 30.4998 59.9996C22.6998 59.9996 15.5998 56.9996 10.2998 52.0996H50.6998Z" fill="black"/>
<path d="M52.5996 50.2008V9.80078C57.4996 15.1008 60.4996 22.2008 60.4996 30.0008C60.4996 37.8008 57.4996 44.9008 52.5996 50.2008Z" fill="black"/>
<path d="M11.5996 14.1992L28.8996 48.8992H11.5996V14.1992Z" fill="black"/>
<path d="M30.5 44.9996L13.5 11.0996H47.5L30.5 44.9996Z" fill="black"/>
<path d="M32.0996 48.8992L49.3996 14.1992V48.8992H32.0996Z" fill="black"/>
<path d="M13.5 11.0996H47.5L30.5 44.9996L13.5 11.0996Z" fill="black"/>
</svg>
