<svg width="61" height="60" viewBox="0 0 61 60" fill="none" xmlns="http://www.w3.org/2000/svg">
<path d="M23.1527 54.8917C18.8722 53.7545 15.1077 51.6607 11.8209 48.7365C10.7891 49.0794 9.73806 49.4224 8.66795 49.7473C8.17111 49.8917 7.67427 49.8375 7.15833 49.657C6.24109 49.3321 5.68693 48.7004 5.28564 47.9242C4.73147 46.8953 4.02443 45.9567 3.47027 44.9278C2.97343 43.9711 2.24729 43.1408 1.82689 42.148C1.61669 41.6607 1.06252 41.3357 1.06252 40.722C0.565686 39.9639 1.04341 39.296 1.33005 38.6282C1.40649 38.4477 1.50203 38.213 1.67401 38.1408C2.36194 37.852 2.70591 37.2022 3.27918 36.8051C3.54671 36.6245 3.83334 36.426 4.13909 36.2094C3.69958 34.1336 3.3174 32.0578 3.3174 29.9278C3.3174 27.8159 3.71869 25.7762 4.13909 23.7545C3.39383 23.1047 2.70591 22.4729 1.97976 21.8773C1.23451 21.2635 0.794996 20.5054 0.890541 19.7112C0.947869 19.278 1.08163 18.8087 1.31094 18.4477C2.01798 17.3827 2.66769 16.2635 3.35562 15.1805C3.90978 14.3141 4.38751 13.4116 4.999 12.5632C5.32385 12.13 5.51495 11.6245 5.8398 11.1733C6.4704 10.3249 7.7316 9.90975 8.76349 10.1986C9.68073 10.4513 10.5406 10.8303 11.477 10.9928C11.5725 11.0108 11.649 11.1372 11.7445 11.2274C15.0504 8.3213 18.8149 6.24549 23.1335 5.0361C23.3055 4.54874 23.3437 4.02527 23.5539 3.51986C23.7068 3.14079 23.6686 2.67148 23.745 2.25632C23.9552 1.17329 24.6623 0.541516 25.6751 0.216606C26.0381 0.108303 26.4012 0 26.8407 0C29.516 0.0361011 32.1913 0.0361011 34.8665 0C35.6309 0 36.2806 0.288809 36.8921 0.613718C37.4463 0.884477 37.752 1.46209 37.9049 2.00361C38.1724 2.99639 38.3253 4.00722 38.5355 5.05415C42.835 6.20939 46.5995 8.2852 49.8863 11.2094C50.9182 10.8664 51.9692 10.5235 53.0393 10.1986C53.5361 10.0542 54.033 10.1083 54.5489 10.2888C55.4661 10.6137 56.0203 11.2455 56.4216 12.0217C56.9758 13.0505 57.6828 13.9892 58.237 15.0181C58.7338 15.9747 59.46 16.8051 59.8804 17.7978C60.0906 18.2852 60.6447 18.6101 60.6447 19.2238C61.1416 19.982 60.6638 20.6498 60.3772 21.3177C60.3008 21.4982 60.2052 21.7329 60.0332 21.8051C59.3453 22.0939 59.0013 22.7437 58.4281 23.1408C58.1605 23.3213 57.8739 23.5199 57.5681 23.7365C58.0077 25.8123 58.3898 27.8881 58.3898 30.018C58.3898 32.13 58.0459 34.1697 57.5681 36.1913C58.3134 36.8412 59.0013 37.4729 59.7275 38.0686C60.4727 38.6823 60.9122 39.4404 60.8167 40.2347C60.7594 40.6679 60.6447 41.1372 60.3963 41.4982C59.7084 42.5451 59.0587 43.6282 58.3898 44.6931C57.549 46.0108 56.8611 47.4368 55.8866 48.6823C55.7146 49.3682 55.0266 49.4224 54.5298 49.6751C53.9947 49.9458 53.4597 49.8736 52.8673 49.7112C51.9883 49.4765 51.1475 49.0614 50.2303 48.9531C50.1347 48.935 50.0583 48.8087 49.9627 48.7184C46.6569 51.6607 42.9115 53.7545 38.5355 54.9278C38.3253 55.9025 38.1342 56.9134 37.9049 57.9061C37.6756 58.8809 36.9876 59.4946 36.0131 59.7834C35.65 59.8917 35.2678 60 34.8474 60C32.1721 59.9639 29.4969 59.9639 26.8216 60C26.0572 60 25.4075 59.7112 24.796 59.3863C24.2419 59.1155 23.917 58.5379 23.8024 57.9964C23.5922 56.9314 23.382 55.9386 23.1527 54.8917ZM24.3947 38.9892C24.7769 38.7906 25.2164 38.6643 25.2355 38.231C25.2738 37.5812 25.3693 36.9134 25.2164 36.2996C24.9489 35.2527 24.4712 34.2419 24.1845 33.1949C23.9935 32.5271 23.573 31.8953 23.5922 31.1733C22.9807 29.7473 22.5985 28.2491 22.0825 26.8051C21.6621 25.6137 21.3564 24.3863 20.8978 23.213C20.6494 22.5632 20.592 21.8412 20.1334 21.2635C20.0952 21.2094 20.0761 21.1733 20.0761 21.1733C19.5601 20.8484 19.0251 20.9567 18.5665 20.9567C18.2989 21.1913 18.0696 21.3899 17.8594 21.5704C17.8403 22.148 17.4008 22.5993 17.4772 23.1588C16.8084 24.5668 16.5218 26.083 15.9676 27.5271C15.681 28.2671 15.509 29.0253 15.2797 29.7834C15.0695 30.5415 14.6109 31.2274 14.6109 32.0397C13.8847 33.574 13.5217 35.2166 12.9866 36.8231C12.8528 37.2202 12.7764 37.5993 13.0439 37.9783C13.1204 38.0866 13.0822 38.2491 13.0822 38.231C13.3879 38.5379 13.6172 38.7545 13.8083 38.9711C14.1714 38.9711 14.5536 38.9711 14.9548 38.9711C15.2224 38.6462 15.4899 38.3394 15.7383 38.0325C15.681 37.0036 15.9103 36.3177 16.4071 35.2166C18.2798 35.2166 20.1525 35.2166 22.0252 35.2166C22.1781 35.7942 22.2545 36.3538 22.4647 36.8773C22.5603 37.0939 22.6558 37.3105 22.6176 37.5271C22.5603 38.1949 22.7896 38.7184 23.5922 38.9711C23.7833 38.9892 24.0699 38.9892 24.3947 38.9892ZM28.8663 38.9892C29.3822 38.9531 29.9746 39.0975 30.395 38.7004C30.5479 38.5199 30.6816 38.3394 30.8727 38.0866C30.8727 36.2816 30.8727 34.3863 30.8727 32.491C32.2677 32.491 33.6436 32.4368 35.0003 32.509C35.822 32.5451 36.4908 32.3105 37.1405 31.9314C37.4463 31.7509 37.7138 31.4801 37.9813 31.2274C38.6884 30.5776 39.0323 29.7834 39.0514 28.8448C39.0514 27.3646 39.0514 25.9025 39.0514 24.4224C39.0514 24.2058 38.9941 23.9711 38.9368 23.7545C38.7266 22.9783 38.2871 22.4007 37.6947 21.8953C37.0068 21.2996 36.2042 20.9386 35.2487 20.9386C33.1085 20.9386 30.9874 20.9386 28.8281 20.9386C28.6179 21.1552 28.4077 21.3718 28.1592 21.5884C28.1592 27.148 28.1592 32.7437 28.1592 38.3574C28.4077 38.556 28.637 38.7726 28.8663 38.9892ZM42.6248 38.9892C43.9434 38.9892 45.281 38.9892 46.5995 38.9892C46.8288 38.7726 47.0581 38.556 47.2875 38.3574C47.2875 38.0144 47.2875 37.6895 47.2875 37.3466C47.2875 37.3105 47.2875 37.2924 47.2875 37.2744C47.0008 36.769 46.5613 36.4621 45.988 36.4079C45.988 32.0939 45.988 27.7978 45.988 23.5921C46.4084 23.3935 46.7715 23.213 47.1919 22.9964C47.2492 22.5271 47.2875 22.0397 47.3257 21.6968C47.0199 21.3718 46.8097 21.1372 46.6377 20.9567C45.2619 20.9567 43.9242 20.9567 42.7395 20.9567C42.4146 21.2274 42.1853 21.426 41.8987 21.6787C41.956 22.1119 42.0324 22.5993 42.0898 23.0144C42.5484 23.231 42.9115 23.4116 43.2363 23.574C43.2363 27.87 43.2363 32.1661 43.2363 36.426C43.0452 36.4621 42.835 36.426 42.7586 36.5162C42.4911 36.769 42.0324 36.8412 41.9369 37.2563C41.9369 37.6173 41.9369 37.9783 41.9369 38.3394C42.1662 38.556 42.3955 38.7726 42.6248 38.9892Z" fill="black"/>
</svg>
