<svg width="65" height="60" viewBox="0 0 65 60" fill="none" xmlns="http://www.w3.org/2000/svg">
<g clip-path="url(#clip0_21323_2966)">
<path fill-rule="evenodd" clip-rule="evenodd" d="M63.5336 15.7639L57.8531 23.7083L52.1725 15.7639H55.2697C55.0336 9.86111 50.1586 5.13889 44.2003 5.13889C39.1725 5.13889 34.9086 8.51389 33.5614 13.1111C31.9225 12.5833 30.2281 12.25 28.5059 12.0972C28.7003 11.3611 28.9503 10.625 29.2559 9.91666C30.0753 7.98611 31.242 6.25 32.7281 4.76389C34.2142 3.27778 35.9503 2.09722 37.8809 1.29167C39.8809 0.430555 42.0059 0 44.2003 0C46.3947 0 48.5197 0.430555 50.5197 1.27778C52.4503 2.09722 54.1864 3.26389 55.6725 4.75C57.1586 6.23611 58.3253 7.97222 59.1447 9.90277C59.9364 11.7639 60.367 13.7361 60.4086 15.7639H63.5336Z" fill="black"/>
<path fill-rule="evenodd" clip-rule="evenodd" d="M55.5892 60.0009V56.5842H36.0059C36.1447 56.5148 36.2836 56.4592 36.4225 56.3898C38.5475 55.3759 40.5059 54.0564 42.2559 52.4453C42.492 52.2231 42.7142 52.0148 42.9225 51.8064C43.1586 51.5703 43.4086 51.3203 43.6447 51.0564C43.9225 50.7509 44.2003 50.4314 44.4503 50.112H55.5892V46.6953L64.8947 53.3481L55.5892 60.0009Z" fill="black"/>
<path fill-rule="evenodd" clip-rule="evenodd" d="M48.3673 35.3192C48.3673 38.2776 47.784 41.1526 46.6451 43.8609C45.6729 46.1664 44.3118 48.2776 42.6173 50.1248C42.3951 50.3609 42.1729 50.597 41.9506 50.8331C41.7423 51.0414 41.534 51.2359 41.3256 51.4442C39.6867 52.9581 37.8534 54.1942 35.8534 55.1526C35.5756 55.2914 35.284 55.4164 34.9923 55.5414C34.9784 55.5414 34.9784 55.5553 34.9645 55.5553C33.2979 56.2637 31.5062 56.6109 29.6867 56.6109H0.797852V50.1526H27.6173C35.7284 50.1526 42.3812 43.6664 42.4923 35.5553C42.4923 35.4859 42.4923 35.4164 42.4923 35.347C42.4923 26.4859 35.2979 19.2914 26.4367 19.2914C17.5756 19.2637 10.3812 26.4442 10.3812 35.3192H14.1034L7.45063 44.6248L0.797852 35.3192H4.52007C4.52007 32.3609 5.10341 29.4859 6.2423 26.7776C7.35341 24.1664 8.92285 21.8192 10.9367 19.8053C12.9506 17.7914 15.2979 16.2081 17.909 15.1109C20.6173 13.972 23.4923 13.3887 26.4506 13.3887C27.0479 13.3887 27.6312 13.4164 28.2145 13.4581C29.9367 13.597 31.6173 13.9303 33.2562 14.472C33.8395 14.6664 34.409 14.8748 34.9784 15.1248C37.5895 16.2359 39.9367 17.8053 41.9506 19.8192C43.9645 21.8331 45.5479 24.1803 46.6451 26.7914C47.784 29.4859 48.3673 32.3609 48.3673 35.3192Z" fill="black"/>
</g>
<defs>
<clipPath id="clip0_21323_2966">
<rect width="64.1111" height="60" fill="white" transform="translate(0.797852)"/>
</clipPath>
</defs>
</svg>
