<svg width="61" height="60" viewBox="0 0 61 60" fill="none" xmlns="http://www.w3.org/2000/svg">
<path d="M60.7717 4.7749C60.3351 2.48295 58.5616 0.627558 56.2969 0.136426C56.1878 0.109141 56.0787 0.109141 55.9422 0.0818554C55.9149 0.0818554 55.8877 0.0272851 55.8604 0H5.81947C5.79218 0.0272851 5.7649 0.0818554 5.71033 0.0818554C3.44566 0.463847 1.5357 2.26467 1.01728 4.55662C0.99 4.63847 0.93543 4.74761 0.880859 4.85675V55.0341C0.908144 55.0887 0.962715 55.116 0.962715 55.1705C1.50842 57.6808 3.03638 59.236 5.51933 59.8636C5.60119 59.8909 5.65576 59.9454 5.71033 60H55.9422C55.9968 59.9727 56.0241 59.9181 56.0787 59.8909C58.5616 59.3179 60.0896 57.8172 60.7171 55.3342C60.7444 55.2524 60.7171 55.1433 60.7444 55.0614C60.7444 55.0341 60.799 55.0068 60.8263 54.9795V4.93861C60.8263 4.88404 60.7717 4.85675 60.7717 4.7749ZM35.6694 33.2606H35.3693C33.1046 33.2606 30.8126 33.2606 28.548 33.2606C28.4388 33.2606 28.3297 33.2606 28.2205 33.2606C28.2205 33.2879 28.1933 33.2879 28.1933 33.3151C28.1933 33.4243 28.1933 33.5334 28.1933 33.6426V54.6794H22.2178V33.2879H14.7144V28.513H35.6421V33.2606H35.6694ZM55.8058 47.5307C55.7512 48.4584 55.6148 49.3588 55.2328 50.2319C55.1237 50.5048 55.0418 50.7503 54.9054 51.0232C54.4143 52.06 53.5957 52.7967 52.6407 53.397C51.5493 54.0791 50.3488 54.4611 49.0937 54.7067C47.7021 54.9795 46.3106 55.0614 44.8918 55.0068C44.2096 54.9795 43.5275 54.9795 42.8454 54.8977C41.2356 54.7067 39.653 54.352 38.1796 53.6426C38.0978 53.6153 37.9886 53.4789 37.9886 53.397C37.9886 51.6235 37.9886 49.8499 37.9886 48.0764C37.9886 48.0491 37.9886 48.0218 37.9886 47.9673C38.4252 48.2674 38.8617 48.5675 39.2983 48.8131C40.3624 49.4407 41.5357 49.8772 42.7362 50.1501C43.7731 50.3956 44.8099 50.4229 45.8467 50.3684C46.638 50.3411 47.4293 50.1501 48.1387 49.7954C48.7662 49.4679 49.2847 49.0314 49.4211 48.2947C49.5575 47.6398 49.5029 46.985 49.121 46.412C48.5752 45.5935 47.8113 45.075 46.9654 44.6385C46.0104 44.1746 45.0555 43.7654 44.0732 43.3288C42.6271 42.6739 41.2083 41.9645 40.035 40.8731C39.08 39.9727 38.3706 38.9086 38.0432 37.6262C37.8522 36.8622 37.7976 36.0982 37.8249 35.3342C37.8522 33.4516 38.5343 31.8417 39.8713 30.5048C40.9627 29.4134 42.2997 28.7585 43.7731 28.3765C44.7826 28.131 45.7922 27.94 46.829 27.9127C47.5657 27.9127 48.3024 27.8308 49.0118 27.8581C50.1305 27.8854 51.2219 27.94 52.3133 28.2128C53.0227 28.4038 53.7594 28.5948 54.4688 28.7585C54.6053 28.7858 54.6598 28.8677 54.6598 29.0314C54.6598 30.7231 54.6598 32.442 54.6598 34.1337C54.6598 34.1883 54.6598 34.2428 54.6325 34.3247C54.4143 34.1883 54.2233 34.0791 54.0323 33.97C53.1591 33.4789 52.2315 33.1514 51.2765 32.9059C50.2124 32.6603 49.1482 32.4966 48.0568 32.5239C47.3201 32.5512 46.5561 32.6603 45.874 32.9059C45.0282 33.206 44.3461 33.6971 44.0459 34.5975C43.8004 35.307 43.9914 35.9072 44.4279 36.4802C44.9736 37.1896 45.7103 37.6808 46.5016 38.0628C47.5657 38.5812 48.6571 39.0177 49.6939 39.5089C50.8945 40.0819 52.095 40.6548 53.1046 41.5007C53.9777 42.2374 54.769 43.0559 55.2055 44.1473C55.4511 44.8022 55.6694 45.4843 55.6694 46.221C55.7785 46.6576 55.8331 47.0941 55.8058 47.5307Z" fill="black"/>
</svg>
